<svg width="73" height="73" viewBox="0 0 73 73" fill="none" xmlns="http://www.w3.org/2000/svg">
<g clip-path="url(#clip0_0_1)">
<path d="M57 0H16C7.16344 0 0 7.16344 0 16V57C0 65.8366 7.16344 73 16 73H57C65.8366 73 73 65.8366 73 57V16C73 7.16344 65.8366 0 57 0Z" fill="#212121"/>
<path d="M35.9998 63C25.4999 62.9398 17.0208 54.7378 17 44.6105C17 34.6838 25.8749 32.3575 35.9998 11C46.1664 32.3575 54.9997 34.6838 54.9997 44.6105C55.0622 54.6976 46.6039 62.9398 36.1248 63H36.104H35.9998Z" fill="white"/>
<path d="M23.3124 31.121C25.7708 31.121 26.2916 32.8551 29.5624 32.8551C32.2499 32.8551 33.0624 31 36.104 31C39.1456 31 39.6248 32.8551 42.1664 32.8551C45.6456 32.8551 45.9164 31.0403 48.6455 31.0403L48.8747 31.3428C52.6038 36.1821 54.9997 39.3075 54.9997 44.5098C55.0622 54.6522 46.6039 62.9395 36.1248 63H36.104H35.9998C25.4999 62.9395 17.0208 54.6723 17 44.5098C17 39.2067 19.4791 36.0611 23.3124 31.121Z" fill="#03A3FD"/>
<path d="M43 42.7099V46.2781H38.4547V51H34.5586V46.2781H30V42.7099H34.5586V38H38.4547V42.7099H43Z" fill="white"/>
</g>
<defs>
<clipPath id="clip0_0_1">
<rect width="73" height="73" fill="white"/>
</clipPath>
</defs>
</svg>
