<svg width="15" height="15" viewBox="0 0 15 15" fill="none" xmlns="http://www.w3.org/2000/svg">
<g clip-path="url(#clip0_0_1)">
<path d="M11.7123 0H3.28767C1.47194 0 0 1.47194 0 3.28767V11.7123C0 13.5281 1.47194 15 3.28767 15H11.7123C13.5281 15 15 13.5281 15 11.7123V3.28767C15 1.47194 13.5281 0 11.7123 0Z" fill="#212121"/>
<path d="M7.39626 12.9452C5.23874 12.9328 3.49646 11.2475 3.49219 9.16652C3.49219 7.12679 5.3158 6.64878 7.39626 2.26025C9.48528 6.64878 11.3003 7.12679 11.3003 9.16652C11.3132 11.2392 9.57518 12.9328 7.42194 12.9452H7.41767H7.39626Z" fill="white"/>
<path d="M4.78926 6.39474C5.29441 6.39474 5.40142 6.75106 6.0735 6.75106C6.62573 6.75106 6.79268 6.36987 7.41767 6.36987C8.04265 6.36987 8.14112 6.75106 8.66337 6.75106C9.37827 6.75106 9.43391 6.37815 9.99469 6.37815L10.0418 6.44031C10.808 7.43469 11.3003 8.07689 11.3003 9.14586C11.3132 11.2299 9.57518 12.9328 7.42194 12.9452H7.41767H7.39626C5.23874 12.9328 3.49646 11.234 3.49219 9.14586C3.49219 8.05618 4.00159 7.40983 4.78926 6.39474Z" fill="#03A3FD"/>
<path d="M8.8353 8.77602V9.50921H7.90133V10.4795H7.10076V9.50921H6.16406V8.77602H7.10076V7.80823H7.90133V8.77602H8.8353Z" fill="white"/>
</g>
<defs>
<clipPath id="clip0_0_1">
<rect width="15" height="15" fill="white"/>
</clipPath>
</defs>
</svg>
