<svg width="1515" height="451" viewBox="0 0 1515 451" fill="none" xmlns="http://www.w3.org/2000/svg">
<mask id="mask0_144_1530" style="mask-type:luminance" maskUnits="userSpaceOnUse" x="0" y="0" width="350" height="350">
<path d="M350 0H0V350H350V0Z" fill="white"/>
</mask>
<g mask="url(#mask0_144_1530)">
<path d="M350 350C304.037 350 258.525 340.947 216.061 323.358C173.597 305.769 135.013 279.988 102.513 247.487C70.0121 214.987 44.2313 176.403 26.6422 133.939C9.05301 91.4752 -4.01818e-06 45.9626 0 0L166.39 1.45463e-05C166.39 24.112 171.139 47.9879 180.367 70.2645C189.594 92.541 203.118 112.782 220.168 129.832C237.218 146.882 257.459 160.406 279.736 169.633C302.012 178.861 325.888 183.61 350 183.61V350Z" fill="#0038FF"/>
</g>
<path d="M418.26 350V151.1H464.5V350H418.26ZM412.48 102.48C412.48 85.14 423.7 73.58 441.38 73.58C459.4 73.58 470.28 85.14 470.28 102.48C470.28 119.82 459.4 131.04 441.38 131.04C422.68 131.04 412.48 119.82 412.48 102.48ZM582.435 354.08C534.495 354.08 484.515 316 484.515 250.72C484.515 184.76 532.795 147.02 583.115 147.02C609.295 147.02 632.415 158.58 647.035 176.6V151.1H692.935V441.46H646.695V326.88C632.075 344.22 609.295 354.08 582.435 354.08ZM589.915 311.92C624.255 311.92 649.415 284.38 649.415 250.04C649.415 216.04 624.255 188.84 589.915 188.84C555.915 188.84 529.735 215.7 529.735 250.04C529.735 284.72 555.915 311.92 589.915 311.92ZM898.26 151.1V350H852.7V327.22C840.12 343.88 821.08 354.08 795.58 354.08C747.98 354.08 719.08 323.14 719.08 269.08V151.1H765.66V264.32C765.66 295.26 779.26 314.3 808.16 314.3C833.66 314.3 852.36 295.26 852.36 260.24V151.1H898.26ZM924.94 350V151.1H971.18V350H924.94ZM919.16 102.48C919.16 85.14 930.38 73.58 948.06 73.58C966.08 73.58 976.96 85.14 976.96 102.48C976.96 119.82 966.08 131.04 948.06 131.04C929.36 131.04 919.16 119.82 919.16 102.48ZM1089.11 354.08C1041.17 354.08 991.195 316 991.195 250.72C991.195 184.76 1039.47 147.02 1089.79 147.02C1115.63 147.02 1138.75 157.22 1153.37 174.56V98.4H1199.61V350H1153.71V324.16C1139.09 342.86 1115.29 354.08 1089.11 354.08ZM1096.59 311.92C1130.93 311.92 1156.09 284.38 1156.09 250.04C1156.09 216.04 1130.93 188.84 1096.59 188.84C1062.59 188.84 1036.41 215.7 1036.41 250.04C1036.41 284.72 1062.59 311.92 1096.59 311.92ZM1227.42 350V151.1H1273.66V350H1227.42ZM1221.64 102.48C1221.64 85.14 1232.86 73.58 1250.54 73.58C1268.56 73.58 1279.44 85.14 1279.44 102.48C1279.44 119.82 1268.56 131.04 1250.54 131.04C1231.84 131.04 1221.64 119.82 1221.64 102.48ZM1391.6 354.08C1343.66 354.08 1293.68 316 1293.68 250.72C1293.68 184.76 1341.96 147.02 1392.28 147.02C1418.46 147.02 1441.58 157.56 1456.2 174.9V151.1H1502.1V350H1456.2V324.16C1441.58 342.86 1417.78 354.08 1391.6 354.08ZM1399.08 311.92C1433.42 311.92 1458.57 284.38 1458.57 250.04C1458.57 216.04 1433.42 188.84 1399.08 188.84C1365.08 188.84 1338.9 215.7 1338.9 250.04C1338.9 284.72 1365.08 311.92 1399.08 311.92Z" fill="#0038FF"/>
</svg>
